<?xml version="1.0" encoding="utf-8"?>
<!-- Generator: Adobe Illustrator 22.1.0, SVG Export Plug-In . SVG Version: 6.00 Build 0)  -->
<svg version="1.1" id="Layer_1" xmlns="http://www.w3.org/2000/svg" xmlns:xlink="http://www.w3.org/1999/xlink" x="0px" y="0px"
	 viewBox="0 0 380 528" style="enable-background:new 0 0 380 528;" xml:space="preserve">
<style type="text/css">
	.st0{fill-rule:evenodd;clip-rule:evenodd;fill:#004C95;}
	.st1{fill-rule:evenodd;clip-rule:evenodd;fill:#0047AA;}
	.st2{fill-rule:evenodd;clip-rule:evenodd;fill:#6B2A6B;}
	.st3{fill-rule:evenodd;clip-rule:evenodd;fill:#A91F5A;}
	.st4{fill-rule:evenodd;clip-rule:evenodd;fill:#AB1E27;}
	.st5{fill-rule:evenodd;clip-rule:evenodd;fill:#AA480D;}
	.st6{fill-rule:evenodd;clip-rule:evenodd;fill:#AC711A;}
	.st7{fill-rule:evenodd;clip-rule:evenodd;fill:#2E792B;}
	.st8{fill-rule:evenodd;clip-rule:evenodd;fill:#4B4E52;}
	.st9{fill-rule:evenodd;clip-rule:evenodd;fill:#FFFFFF;}
	.st10{fill-rule:evenodd;clip-rule:evenodd;fill:#CFCFCF;}
	.st11{font-family:'SFProText-Medium';}
	.st12{font-size:12px;}
	.st13{fill-rule:evenodd;clip-rule:evenodd;fill:#8BC4FF;}
	.st14{fill-rule:evenodd;clip-rule:evenodd;fill:#EC93E4;}
	.st15{fill-rule:evenodd;clip-rule:evenodd;fill:#FFB0D2;}
	.st16{fill-rule:evenodd;clip-rule:evenodd;fill:#FF8E95;}
	.st17{fill-rule:evenodd;clip-rule:evenodd;fill:#FFA0A6;}
	.st18{fill-rule:evenodd;clip-rule:evenodd;fill:#FFC9A9;}
	.st19{fill-rule:evenodd;clip-rule:evenodd;fill:#FFE1B1;}
	.st20{fill-rule:evenodd;clip-rule:evenodd;fill:#8CFF89;}
	.st21{fill-rule:evenodd;clip-rule:evenodd;fill:#9FFD9F;}
	.st22{fill-rule:evenodd;clip-rule:evenodd;fill:#D2D2D2;}
	.st23{fill-rule:evenodd;clip-rule:evenodd;fill:#4A4A4A;}
	.st24{fill:none;}
</style>
<rect x="100" y="275" class="st0" width="100" height="22"/>
<rect x="100" y="308" class="st1" width="100" height="22"/>
<rect x="100" y="308" class="st2" width="100" height="22"/>
<rect x="100" y="341" class="st3" width="100" height="22"/>
<rect x="100" y="374" class="st4" width="100" height="22"/>
<rect x="100" y="407" class="st5" width="100" height="22"/>
<rect x="100" y="440" class="st6" width="100" height="22"/>
<rect x="100" y="473" class="st7" width="100" height="22"/>
<rect x="100" y="506" class="st8" width="100" height="22"/>
<rect x="157" y="280" class="st9" width="4" height="11"/>
<rect x="157" y="313" class="st9" width="4" height="11"/>
<rect x="157" y="346" class="st9" width="4" height="11"/>
<rect x="157" y="379" class="st9" width="4" height="11"/>
<rect x="157" y="412" class="st9" width="4" height="11"/>
<rect x="157" y="445" class="st9" width="4" height="11"/>
<rect x="157" y="478" class="st9" width="4" height="11"/>
<rect x="57" y="280" class="st10" width="4" height="11"/>
<rect x="57" y="313" class="st10" width="4" height="11"/>
<rect x="57" y="346" class="st10" width="4" height="11"/>
<rect x="57" y="379" class="st10" width="4" height="11"/>
<rect x="57" y="412" class="st10" width="4" height="11"/>
<rect x="57" y="445" class="st10" width="4" height="11"/>
<rect x="57" y="478" class="st10" width="4" height="11"/>
<rect x="57" y="511" class="st10" width="4" height="11"/>
<rect x="157" y="511" class="st9" width="4" height="11"/>
<rect x="164" y="280" class="st9" width="4" height="11"/>
<rect x="164" y="313" class="st9" width="4" height="11"/>
<rect x="164" y="346" class="st9" width="4" height="11"/>
<rect x="164" y="379" class="st9" width="4" height="11"/>
<rect x="164" y="412" class="st9" width="4" height="11"/>
<rect x="164" y="445" class="st9" width="4" height="11"/>
<rect x="164" y="478" class="st9" width="4" height="11"/>
<rect x="64" y="280" class="st10" width="4" height="11"/>
<rect x="64" y="313" class="st10" width="4" height="11"/>
<rect x="64" y="346" class="st10" width="4" height="11"/>
<rect x="64" y="379" class="st10" width="4" height="11"/>
<rect x="64" y="412" class="st10" width="4" height="11"/>
<rect x="64" y="445" class="st10" width="4" height="11"/>
<rect x="64" y="478" class="st10" width="4" height="11"/>
<rect x="64" y="511" class="st10" width="4" height="11"/>
<rect x="164" y="511" class="st9" width="4" height="11"/>
<polygon class="st9" points="143,285.5 133,290.5 133,280.5 "/>
<polygon class="st9" points="143,318.5 133,323.5 133,313.5 "/>
<polygon class="st9" points="143,351.5 133,356.5 133,346.5 "/>
<polygon class="st9" points="143,384.5 133,389.5 133,379.5 "/>
<polygon class="st9" points="143,417.5 133,422.5 133,412.5 "/>
<polygon class="st9" points="143,450.5 133,455.5 133,445.5 "/>
<polygon class="st9" points="143,483.5 133,488.5 133,478.5 "/>
<polygon class="st10" points="43,285.5 33,290.5 33,280.5 "/>
<polygon class="st10" points="43,318.5 33,323.5 33,313.5 "/>
<polygon class="st10" points="43,351.5 33,356.5 33,346.5 "/>
<polygon class="st10" points="43,384.5 33,389.5 33,379.5 "/>
<polygon class="st10" points="43,417.5 33,422.5 33,412.5 "/>
<polygon class="st10" points="43,450.5 33,455.5 33,445.5 "/>
<polygon class="st10" points="43,483.5 33,488.5 33,478.5 "/>
<polygon class="st10" points="43,516.5 33,521.5 33,511.5 "/>
<polygon class="st9" points="143,516.5 133,521.5 133,511.5 "/>
<polygon class="st9" points="143,285.5 133,290.5 133,280.5 "/>
<polygon class="st9" points="143,318.5 133,323.5 133,313.5 "/>
<polygon class="st9" points="143,351.5 133,356.5 133,346.5 "/>
<polygon class="st9" points="143,384.5 133,389.5 133,379.5 "/>
<polygon class="st9" points="143,417.5 133,422.5 133,412.5 "/>
<polygon class="st9" points="143,450.5 133,455.5 133,445.5 "/>
<polygon class="st9" points="143,483.5 133,488.5 133,478.5 "/>
<polygon class="st10" points="43,285.5 33,290.5 33,280.5 "/>
<polygon class="st10" points="43,318.5 33,323.5 33,313.5 "/>
<polygon class="st10" points="43,351.5 33,356.5 33,346.5 "/>
<polygon class="st10" points="43,384.5 33,389.5 33,379.5 "/>
<polygon class="st10" points="43,417.5 33,422.5 33,412.5 "/>
<polygon class="st10" points="43,450.5 33,455.5 33,445.5 "/>
<polygon class="st10" points="43,483.5 33,488.5 33,478.5 "/>
<polygon class="st10" points="43,516.5 33,521.5 33,511.5 "/>
<polygon class="st9" points="143,516.5 133,521.5 133,511.5 "/>
<polygon class="st9" points="187.9,285.5 180,289.5 180,281.5 "/>
<polygon class="st9" points="187.9,318.5 180,322.5 180,314.5 "/>
<polygon class="st9" points="187.9,351.5 180,355.5 180,347.5 "/>
<polygon class="st9" points="187.9,384.5 180,388.5 180,380.5 "/>
<polygon class="st9" points="187.9,417.5 180,421.5 180,413.5 "/>
<polygon class="st9" points="187.9,450.5 180,454.5 180,446.5 "/>
<polygon class="st9" points="187.9,483.5 180,487.5 180,479.5 "/>
<polygon class="st10" points="87.9,285.5 80,289.5 80,281.5 "/>
<polygon class="st10" points="87.9,318.5 80,322.5 80,314.5 "/>
<polygon class="st10" points="87.9,351.5 80,355.5 80,347.5 "/>
<polygon class="st10" points="87.9,384.5 80,388.5 80,380.5 "/>
<polygon class="st10" points="87.9,417.5 80,421.5 80,413.5 "/>
<polygon class="st10" points="87.9,450.5 80,454.5 80,446.5 "/>
<polygon class="st10" points="87.9,483.5 80,487.5 80,479.5 "/>
<polygon class="st10" points="87.9,516.5 80,520.5 80,512.5 "/>
<polygon class="st9" points="187.9,516.5 180,520.5 180,512.5 "/>
<polygon class="st9" points="112.1,285.5 120,281.5 120,289.5 "/>
<polygon class="st9" points="112.1,318.5 120,314.5 120,322.5 "/>
<polygon class="st9" points="112.1,351.5 120,347.5 120,355.5 "/>
<polygon class="st9" points="112.1,384.5 120,380.5 120,388.5 "/>
<polygon class="st9" points="112.1,417.5 120,413.5 120,421.5 "/>
<polygon class="st9" points="112.1,450.5 120,446.5 120,454.5 "/>
<polygon class="st9" points="112.1,483.5 120,479.5 120,487.5 "/>
<polygon class="st10" points="12.1,285.5 20,281.5 20,289.5 "/>
<polygon class="st10" points="12.1,318.5 20,314.5 20,322.5 "/>
<polygon class="st10" points="12.1,351.5 20,347.5 20,355.5 "/>
<polygon class="st10" points="12.1,384.5 20,380.5 20,388.5 "/>
<polygon class="st10" points="12.1,417.5 20,413.5 20,421.5 "/>
<polygon class="st10" points="12.1,450.5 20,446.5 20,454.5 "/>
<polygon class="st10" points="12.1,483.5 20,479.5 20,487.5 "/>
<polygon class="st10" points="12.1,516.5 20,512.5 20,520.5 "/>
<polygon class="st9" points="112.1,516.5 120,512.5 120,520.5 "/>
<polygon class="st9" points="194.9,285.5 187,289.5 187,281.5 "/>
<polygon class="st9" points="194.9,318.5 187,322.5 187,314.5 "/>
<polygon class="st9" points="194.9,351.5 187,355.5 187,347.5 "/>
<polygon class="st9" points="194.9,384.5 187,388.5 187,380.5 "/>
<polygon class="st9" points="194.9,417.5 187,421.5 187,413.5 "/>
<polygon class="st9" points="194.9,450.5 187,454.5 187,446.5 "/>
<polygon class="st9" points="194.9,483.5 187,487.5 187,479.5 "/>
<polygon class="st10" points="94.9,285.5 87,289.5 87,281.5 "/>
<polygon class="st10" points="94.9,318.5 87,322.5 87,314.5 "/>
<polygon class="st10" points="94.9,351.5 87,355.5 87,347.5 "/>
<polygon class="st10" points="94.9,384.5 87,388.5 87,380.5 "/>
<polygon class="st10" points="94.9,417.5 87,421.5 87,413.5 "/>
<polygon class="st10" points="94.9,450.5 87,454.5 87,446.5 "/>
<polygon class="st10" points="94.9,483.5 87,487.5 87,479.5 "/>
<polygon class="st10" points="94.9,516.5 87,520.5 87,512.5 "/>
<polygon class="st9" points="194.9,516.5 187,520.5 187,512.5 "/>
<polygon class="st9" points="105.1,285.5 113,281.5 113,289.5 "/>
<polygon class="st9" points="105.1,318.5 113,314.5 113,322.5 "/>
<polygon class="st9" points="105.1,351.5 113,347.5 113,355.5 "/>
<polygon class="st9" points="105.1,384.5 113,380.5 113,388.5 "/>
<polygon class="st9" points="105.1,417.5 113,413.5 113,421.5 "/>
<polygon class="st9" points="105.1,450.5 113,446.5 113,454.5 "/>
<polygon class="st9" points="105.1,483.5 113,479.5 113,487.5 "/>
<polygon class="st10" points="5.1,285.5 13,281.5 13,289.5 "/>
<polygon class="st10" points="5.1,318.5 13,314.5 13,322.5 "/>
<polygon class="st10" points="5.1,351.5 13,347.5 13,355.5 "/>
<polygon class="st10" points="5.1,384.5 13,380.5 13,388.5 "/>
<polygon class="st10" points="5.1,417.5 13,413.5 13,421.5 "/>
<polygon class="st10" points="5.1,450.5 13,446.5 13,454.5 "/>
<polygon class="st10" points="5.1,483.5 13,479.5 13,487.5 "/>
<polygon class="st10" points="5.1,516.5 13,512.5 13,520.5 "/>
<polygon class="st9" points="105.1,516.5 113,512.5 113,520.5 "/>
<text transform="matrix(1 0 0 1 211.803 291)" class="st11 st12">MojaveDarkBlue</text>
<text transform="matrix(1 0 0 1 211.803 423)" class="st11 st12">MojaveDarkOrange</text>
<text transform="matrix(1 0 0 1 211.803 357)" class="st11 st12">MojaveDarkPink</text>
<text transform="matrix(1 0 0 1 211.803 489)" class="st11 st12">MojaveDarkGreen</text>
<text transform="matrix(1 0 0 1 211.803 324)" class="st11 st12">MojaveDarkPurple</text>
<text transform="matrix(1 0 0 1 211.803 456)" class="st11 st12">MojaveDarkYellow</text>
<text transform="matrix(1 0 0 1 211.803 390)" class="st11 st12">MojaveDarkRed</text>
<text transform="matrix(1 0 0 1 211.803 522)" class="st11 st12">MojaveDarkGraphite</text>
<rect x="100" class="st13" width="100" height="22"/>
<rect x="100" y="33" class="st14" width="100" height="22"/>
<rect x="100" y="66" class="st15" width="100" height="22"/>
<rect x="100" y="99" class="st16" width="100" height="22"/>
<rect x="100" y="99" class="st17" width="100" height="22"/>
<rect x="100" y="132" class="st18" width="100" height="22"/>
<rect x="100" y="165" class="st19" width="100" height="22"/>
<rect x="100" y="198" class="st20" width="100" height="22"/>
<rect x="100" y="198" class="st21" width="100" height="22"/>
<rect x="100" y="231" class="st22" width="100" height="22"/>
<rect x="157" y="5" class="st9" width="4" height="11"/>
<rect x="157" y="38" class="st9" width="4" height="11"/>
<rect x="157" y="71" class="st9" width="4" height="11"/>
<rect x="157" y="104" class="st9" width="4" height="11"/>
<rect x="157" y="137" class="st9" width="4" height="11"/>
<rect x="157" y="170" class="st9" width="4" height="11"/>
<rect x="157" y="203" class="st9" width="4" height="11"/>
<rect x="57" y="5" class="st23" width="4" height="11"/>
<rect x="57" y="38" class="st23" width="4" height="11"/>
<rect x="57" y="71" class="st23" width="4" height="11"/>
<rect x="57" y="104" class="st23" width="4" height="11"/>
<rect x="57" y="137" class="st23" width="4" height="11"/>
<rect x="57" y="170" class="st23" width="4" height="11"/>
<rect x="57" y="203" class="st23" width="4" height="11"/>
<rect x="57" y="236" class="st23" width="4" height="11"/>
<rect x="157" y="236" class="st9" width="4" height="11"/>
<rect x="164" y="5" class="st9" width="4" height="11"/>
<rect x="164" y="38" class="st9" width="4" height="11"/>
<rect x="164" y="71" class="st9" width="4" height="11"/>
<rect x="164" y="104" class="st9" width="4" height="11"/>
<rect x="164" y="137" class="st9" width="4" height="11"/>
<rect x="164" y="170" class="st9" width="4" height="11"/>
<rect x="164" y="203" class="st9" width="4" height="11"/>
<rect x="64" y="5" class="st23" width="4" height="11"/>
<rect x="64" y="38" class="st23" width="4" height="11"/>
<rect x="64" y="71" class="st23" width="4" height="11"/>
<rect x="64" y="104" class="st23" width="4" height="11"/>
<rect x="64" y="137" class="st23" width="4" height="11"/>
<rect x="64" y="170" class="st23" width="4" height="11"/>
<rect x="64" y="203" class="st23" width="4" height="11"/>
<rect x="64" y="236" class="st23" width="4" height="11"/>
<rect x="164" y="236" class="st9" width="4" height="11"/>
<polygon class="st9" points="143,10.5 133,15.5 133,5.5 "/>
<polygon class="st9" points="143,43.5 133,48.5 133,38.5 "/>
<polygon class="st9" points="143,76.5 133,81.5 133,71.5 "/>
<polygon class="st9" points="143,109.5 133,114.5 133,104.5 "/>
<polygon class="st9" points="143,142.5 133,147.5 133,137.5 "/>
<polygon class="st9" points="143,175.5 133,180.5 133,170.5 "/>
<polygon class="st9" points="143,208.5 133,213.5 133,203.5 "/>
<polygon class="st23" points="43,10.5 33,15.5 33,5.5 "/>
<polygon class="st23" points="43,43.5 33,48.5 33,38.5 "/>
<polygon class="st23" points="43,76.5 33,81.5 33,71.5 "/>
<polygon class="st23" points="43,109.5 33,114.5 33,104.5 "/>
<polygon class="st23" points="43,142.5 33,147.5 33,137.5 "/>
<polygon class="st23" points="43,175.5 33,180.5 33,170.5 "/>
<polygon class="st23" points="43,208.5 33,213.5 33,203.5 "/>
<polygon class="st23" points="43,241.5 33,246.5 33,236.5 "/>
<polygon class="st9" points="143,241.5 133,246.5 133,236.5 "/>
<polygon class="st9" points="143,10.5 133,15.5 133,5.5 "/>
<polygon class="st9" points="143,43.5 133,48.5 133,38.5 "/>
<polygon class="st9" points="143,76.5 133,81.5 133,71.5 "/>
<polygon class="st9" points="143,109.5 133,114.5 133,104.5 "/>
<polygon class="st9" points="143,142.5 133,147.5 133,137.5 "/>
<polygon class="st9" points="143,175.5 133,180.5 133,170.5 "/>
<polygon class="st9" points="143,208.5 133,213.5 133,203.5 "/>
<polygon class="st23" points="43,10.5 33,15.5 33,5.5 "/>
<polygon class="st23" points="43,43.5 33,48.5 33,38.5 "/>
<polygon class="st23" points="43,76.5 33,81.5 33,71.5 "/>
<polygon class="st23" points="43,109.5 33,114.5 33,104.5 "/>
<polygon class="st23" points="43,142.5 33,147.5 33,137.5 "/>
<polygon class="st23" points="43,175.5 33,180.5 33,170.5 "/>
<polygon class="st23" points="43,208.5 33,213.5 33,203.5 "/>
<polygon class="st23" points="43,241.5 33,246.5 33,236.5 "/>
<polygon class="st9" points="143,241.5 133,246.5 133,236.5 "/>
<polygon class="st9" points="187.9,10.5 180,14.5 180,6.5 "/>
<polygon class="st9" points="187.9,43.5 180,47.5 180,39.5 "/>
<polygon class="st9" points="187.9,76.5 180,80.5 180,72.5 "/>
<polygon class="st9" points="187.9,109.5 180,113.5 180,105.5 "/>
<polygon class="st9" points="187.9,142.5 180,146.5 180,138.5 "/>
<polygon class="st9" points="187.9,175.5 180,179.5 180,171.5 "/>
<polygon class="st9" points="187.9,208.5 180,212.5 180,204.5 "/>
<polygon class="st23" points="87.9,10.5 80,14.5 80,6.5 "/>
<polygon class="st23" points="87.9,43.5 80,47.5 80,39.5 "/>
<polygon class="st23" points="87.9,76.5 80,80.5 80,72.5 "/>
<polygon class="st23" points="87.9,109.5 80,113.5 80,105.5 "/>
<polygon class="st23" points="87.9,142.5 80,146.5 80,138.5 "/>
<polygon class="st23" points="87.9,175.5 80,179.5 80,171.5 "/>
<polygon class="st23" points="87.9,208.5 80,212.5 80,204.5 "/>
<polygon class="st23" points="87.9,241.5 80,245.5 80,237.5 "/>
<polygon class="st9" points="187.9,241.5 180,245.5 180,237.5 "/>
<polygon class="st9" points="112.1,10.5 120,6.5 120,14.5 "/>
<polygon class="st9" points="112.1,43.5 120,39.5 120,47.5 "/>
<polygon class="st9" points="112.1,76.5 120,72.5 120,80.5 "/>
<polygon class="st9" points="112.1,109.5 120,105.5 120,113.5 "/>
<polygon class="st9" points="112.1,142.5 120,138.5 120,146.5 "/>
<polygon class="st9" points="112.1,175.5 120,171.5 120,179.5 "/>
<polygon class="st9" points="112.1,208.5 120,204.5 120,212.5 "/>
<polygon class="st23" points="12.1,10.5 20,6.5 20,14.5 "/>
<polygon class="st23" points="12.1,43.5 20,39.5 20,47.5 "/>
<polygon class="st23" points="12.1,76.5 20,72.5 20,80.5 "/>
<polygon class="st23" points="12.1,109.5 20,105.5 20,113.5 "/>
<polygon class="st23" points="12.1,142.5 20,138.5 20,146.5 "/>
<polygon class="st23" points="12.1,175.5 20,171.5 20,179.5 "/>
<polygon class="st23" points="12.1,208.5 20,204.5 20,212.5 "/>
<polygon class="st23" points="12.1,241.5 20,237.5 20,245.5 "/>
<polygon class="st9" points="112.1,241.5 120,237.5 120,245.5 "/>
<polygon class="st9" points="194.9,10.5 187,14.5 187,6.5 "/>
<polygon class="st9" points="194.9,43.5 187,47.5 187,39.5 "/>
<polygon class="st9" points="194.9,76.5 187,80.5 187,72.5 "/>
<polygon class="st9" points="194.9,109.5 187,113.5 187,105.5 "/>
<polygon class="st9" points="194.9,142.5 187,146.5 187,138.5 "/>
<polygon class="st9" points="194.9,175.5 187,179.5 187,171.5 "/>
<polygon class="st9" points="194.9,208.5 187,212.5 187,204.5 "/>
<polygon class="st23" points="94.9,10.5 87,14.5 87,6.5 "/>
<polygon class="st23" points="94.9,43.5 87,47.5 87,39.5 "/>
<polygon class="st23" points="94.9,76.5 87,80.5 87,72.5 "/>
<polygon class="st23" points="94.9,109.5 87,113.5 87,105.5 "/>
<polygon class="st23" points="94.9,142.5 87,146.5 87,138.5 "/>
<polygon class="st23" points="94.9,175.5 87,179.5 87,171.5 "/>
<polygon class="st23" points="94.9,208.5 87,212.5 87,204.5 "/>
<polygon class="st23" points="94.9,241.5 87,245.5 87,237.5 "/>
<polygon class="st9" points="194.9,241.5 187,245.5 187,237.5 "/>
<polygon class="st9" points="105.1,10.5 113,6.5 113,14.5 "/>
<polygon class="st9" points="105.1,43.5 113,39.5 113,47.5 "/>
<polygon class="st9" points="105.1,76.5 113,72.5 113,80.5 "/>
<polygon class="st9" points="105.1,109.5 113,105.5 113,113.5 "/>
<polygon class="st9" points="105.1,142.5 113,138.5 113,146.5 "/>
<polygon class="st9" points="105.1,175.5 113,171.5 113,179.5 "/>
<polygon class="st9" points="105.1,208.5 113,204.5 113,212.5 "/>
<polygon class="st23" points="5.1,10.5 13,6.5 13,14.5 "/>
<polygon class="st23" points="5.1,43.5 13,39.5 13,47.5 "/>
<polygon class="st23" points="5.1,76.5 13,72.5 13,80.5 "/>
<polygon class="st23" points="5.1,109.5 13,105.5 13,113.5 "/>
<polygon class="st23" points="5.1,142.5 13,138.5 13,146.5 "/>
<polygon class="st23" points="5.1,175.5 13,171.5 13,179.5 "/>
<polygon class="st23" points="5.1,208.5 13,204.5 13,212.5 "/>
<polygon class="st23" points="5.1,241.5 13,237.5 13,245.5 "/>
<polygon class="st9" points="105.1,241.5 113,237.5 113,245.5 "/>
<text transform="matrix(1 0 0 1 211.803 16)" class="st11 st12">MojaveLightBlue</text>
<text transform="matrix(1 0 0 1 211.803 148)" class="st11 st12">MojaveLightOrange</text>
<text transform="matrix(1 0 0 1 211.803 82)" class="st11 st12">MojaveLightPink</text>
<text transform="matrix(1 0 0 1 211.803 214)" class="st11 st12">MojaveLightGreen</text>
<text transform="matrix(1 0 0 1 211.803 49)" class="st11 st12">MojaveLightPurple</text>
<text transform="matrix(1 0 0 1 211.803 181)" class="st11 st12">MojaveLightYellow</text>
<text transform="matrix(1 0 0 1 211.803 115)" class="st11 st12">MojaveLightRed</text>
<text transform="matrix(1 0 0 1 211.803 247)" class="st11 st12">MojaveLightGraphite</text>
<g>
	<g>
	</g>
	<g>
	</g>
</g>
<rect id="_x3C_Slice_x3E_" class="st24" width="25" height="22"/>
<rect id="_x3C_Slice_x3E__1_" x="25" class="st24" width="25" height="22"/>
<rect id="_x3C_Slice_x3E__2_" x="50" class="st24" width="25" height="22"/>
<rect id="_x3C_Slice_x3E__3_" x="75" class="st24" width="25" height="22"/>
<rect id="_x3C_Slice_x3E__4_" x="100" class="st24" width="25" height="22"/>
<rect id="_x3C_Slice_x3E__5_" x="125" class="st24" width="25" height="22"/>
<rect id="_x3C_Slice_x3E__6_" x="150" class="st24" width="25" height="22"/>
<rect id="_x3C_Slice_x3E__7_" x="175" class="st24" width="25" height="22"/>
</svg>
